<svg xmlns="http://www.w3.org/2000/svg" xmlns:xlink="http://www.w3.org/1999/xlink" version="1.1" x="0px" y="0px" viewBox="0 0 100 125" enable-background="new 0 0 100 100" xml:space="preserve"><g><path d="M23.667,68.666L50,95l26.36-26.359c14.56-14.561,14.559-38.164,0-52.723C61.803,1.359,38.199,1.361,23.641,15.92   C9.081,30.479,9.08,54.082,23.638,68.641C23.647,68.65,23.658,68.658,23.667,68.666z M37.397,29.676   c6.961-6.963,18.248-6.963,25.208-0.002c6.962,6.963,6.96,18.248-0.001,25.209s-18.245,6.961-25.206,0   C30.438,47.92,30.435,36.637,37.397,29.676z"/></g><text x="0" y="115" fill="#000000" font-size="5px" font-weight="bold" font-family="'Helvetica Neue', Helvetica, Arial-Unicode, Arial, Sans-serif">Created by Ates Evren Aydinel</text><text x="0" y="120" fill="#000000" font-size="5px" font-weight="bold" font-family="'Helvetica Neue', Helvetica, Arial-Unicode, Arial, Sans-serif">from the Noun Project</text></svg>