<?xml version="1.0" encoding="utf-8"?>
<!-- Generator: Adobe Illustrator 25.0.1, SVG Export Plug-In . SVG Version: 6.00 Build 0)  -->
<svg version="1.1" id="Layer_1" xmlns="http://www.w3.org/2000/svg" xmlns:xlink="http://www.w3.org/1999/xlink" x="0px" y="0px"
	 viewBox="0 0 100 125" style="enable-background:new 0 0 100 125;" xml:space="preserve">
<style type="text/css">
	.st0{fill:#005512;}
	.st1{font-family:'Arial-BoldMT';}
	.st2{font-size:5px;}
</style>
<g>
	<path class="st0" d="M23.7,68.7L50,95l26.4-26.4c14.6-14.6,14.6-38.2,0-52.7c-14.6-14.6-38.2-14.6-52.7,0
		C9.1,30.5,9.1,54.1,23.7,68.7C23.6,68.7,23.7,68.7,23.7,68.7z M37.4,29.7c7-7,18.2-7,25.2,0c7,7,7,18.2,0,25.2s-18.2,7-25.2,0
		C30.4,47.9,30.4,36.6,37.4,29.7z"/>
</g>
<!-- <text transform="matrix(1 0 0 1 0 115)" class="st1 st2">Created by Ates Evren Aydinel</text>
<text transform="matrix(1 0 0 1 0 120)" class="st1 st2">from the Noun Project</text> -->
</svg>
