<svg xmlns="http://www.w3.org/2000/svg" xmlns:xlink="http://www.w3.org/1999/xlink" version="1.1" x="0px" y="0px" viewBox="0 0 100 125" enable-background="new 0 0 100 100" xml:space="preserve"><path d="M13.799,48.111c-4.351,0-7.878,3.527-7.878,7.878c0,4.351,3.527,7.879,7.878,7.879c4.351,0,7.878-3.528,7.878-7.879  C21.678,51.638,18.15,48.111,13.799,48.111z M13.799,59.868c-2.142,0-3.879-1.737-3.879-3.879c0-2.143,1.737-3.878,3.879-3.878  c2.142,0,3.878,1.735,3.878,3.878C17.678,58.131,15.941,59.868,13.799,59.868z"/><path d="M69.854,52.986c-4.351,0-7.878,3.527-7.878,7.878c0,4.352,3.527,7.879,7.878,7.879c4.352,0,7.879-3.527,7.879-7.879  C77.732,56.514,74.205,52.986,69.854,52.986z M69.854,64.743c-2.142,0-3.878-1.736-3.878-3.879s1.736-3.878,3.878-3.878  c2.143,0,3.879,1.735,3.879,3.878S71.996,64.743,69.854,64.743z"/><path d="M71.076,15.116c-5.964,0-10.799,4.835-10.799,10.799c0,5.964,4.835,10.799,10.799,10.799s10.799-4.835,10.799-10.799  C81.875,19.951,77.04,15.116,71.076,15.116z M71.076,31.232c-2.937,0-5.317-2.38-5.317-5.316c0-2.937,2.381-5.317,5.317-5.317  c2.936,0,5.316,2.38,5.316,5.317C76.393,28.852,74.012,31.232,71.076,31.232z"/><g><g><path d="M13.196,84.523c-1.038-1.041-1.975-2.188-2.786-3.41l4.325-2.873c0.623,0.938,1.343,1.818,2.139,2.618L13.196,84.523z"/></g><g><path d="M7.182,73.451c-0.342-1.583-0.515-3.209-0.515-4.831c0-1.154,0.088-2.317,0.262-3.454l5.133,0.783    c-0.134,0.879-0.202,1.777-0.202,2.671c0,1.254,0.134,2.511,0.399,3.734L7.182,73.451z M81.078,63.712l-0.602-5.158    c2.22-0.259,3.99-0.955,5.41-2.128l3.308,4.003C87.01,62.233,84.279,63.338,81.078,63.712z M58.337,59.41    c-1.384-0.464-2.78-0.943-4.184-1.424c-0.939-0.321-1.882-0.645-2.825-0.964l1.669-4.918c0.948,0.322,1.896,0.646,2.839,0.97    c1.393,0.478,2.778,0.952,4.152,1.412L58.337,59.41z M44.379,54.768c-2.596-0.785-4.869-1.385-6.946-1.836l1.1-5.075    c2.214,0.48,4.618,1.115,7.348,1.94L44.379,54.768z M94.069,53.172l-4.936-1.616c0.254-0.776,0.378-1.509,0.378-2.242    c0-1.005-0.236-1.992-0.723-3.016l4.69-2.228c0.812,1.711,1.225,3.476,1.225,5.243C94.704,50.586,94.49,51.884,94.069,53.172z     M23.94,52.412l-1.216-5.048c2.417-0.583,5.134-0.789,8.1-0.621l-0.297,5.185C28.072,51.787,25.86,51.95,23.94,52.412z     M84.809,41.333c-1.722-1.593-3.75-3.15-5.54-4.523l3.161-4.119c1.878,1.441,4.008,3.075,5.905,4.832L84.809,41.333z"/></g></g><text x="0" y="115" fill="#000000" font-size="5px" font-weight="bold" font-family="'Helvetica Neue', Helvetica, Arial-Unicode, Arial, Sans-serif">Created by Gabriele Debolini</text><text x="0" y="120" fill="#000000" font-size="5px" font-weight="bold" font-family="'Helvetica Neue', Helvetica, Arial-Unicode, Arial, Sans-serif">from the Noun Project</text></svg>