<svg xmlns="http://www.w3.org/2000/svg" data-name="Layer 1" viewBox="0 0 100 125" x="0px" y="0px"><title>All4</title><path d="M95.4,26.83a1.62,1.62,0,0,0-.45.07V14.84a7.6,7.6,0,0,0-.19-1.7,2.82,2.82,0,0,0,0-.36C94.79,6.34,74.74,1.1,50,1.1S5.21,6.34,5.21,12.79a2.82,2.82,0,0,0,0,.36A7.6,7.6,0,0,0,5,14.84V26.9a1.62,1.62,0,0,0-.45-0.07C2.06,26.83,0,32.94,0,40.47S2.06,54.12,4.6,54.12A1.62,1.62,0,0,0,5,54.05v27.3a7.76,7.76,0,0,0,7.74,7.74h1.32c0,0.06,0,.12,0,0.18v4.56a5.07,5.07,0,0,0,5.06,5.06H24A5.07,5.07,0,0,0,29,93.83V89.27c0-.06,0-0.12,0-0.18H71c0,0.06,0,.12,0,0.18v4.56A5.07,5.07,0,0,0,76,98.9h4.81a5.07,5.07,0,0,0,5.06-5.06V89.27c0-.06,0-0.12,0-0.18h1.32A7.76,7.76,0,0,0,95,81.35V54.05a1.62,1.62,0,0,0,.45.07c2.54,0,4.6-6.11,4.6-13.64S97.94,26.83,95.4,26.83ZM32.89,7.1H67.11a2.84,2.84,0,1,1,0,5.68H32.89A2.84,2.84,0,1,1,32.89,7.1ZM21.51,81.22A5.49,5.49,0,1,1,27,75.73,5.49,5.49,0,0,1,21.51,81.22Zm57,0A5.49,5.49,0,1,1,84,75.73,5.49,5.49,0,0,1,78.49,81.22Zm8.26-23.66a5.85,5.85,0,0,1-5.83,5.83H19.07a5.85,5.85,0,0,1-5.83-5.83V23.39a5.85,5.85,0,0,1,5.83-5.83H80.93a5.85,5.85,0,0,1,5.83,5.83V57.56Z"/><text x="0" y="115" fill="#000000" font-size="5px" font-weight="bold" font-family="'Helvetica Neue', Helvetica, Arial-Unicode, Arial, Sans-serif">Created by i cons</text><text x="0" y="120" fill="#000000" font-size="5px" font-weight="bold" font-family="'Helvetica Neue', Helvetica, Arial-Unicode, Arial, Sans-serif">from the Noun Project</text></svg>