<?xml version="1.0" encoding="utf-8"?>
<!-- Generator: Adobe Illustrator 25.0.1, SVG Export Plug-In . SVG Version: 6.00 Build 0)  -->
<svg version="1.1" id="Layer_1" xmlns="http://www.w3.org/2000/svg" xmlns:xlink="http://www.w3.org/1999/xlink" x="0px" y="0px"
	 viewBox="0 0 100 125" style="enable-background:new 0 0 100 125;" xml:space="preserve">
<style type="text/css">
	.st0{display:none;enable-background:new    ;}
	.st1{font-family:'Arial-BoldMT';}
	.st2{font-size:5px;}
</style>
<path d="M95.4,26.8c-0.2,0-0.3,0-0.4,0.1V14.8c0-0.6-0.1-1.1-0.2-1.7c0-0.1,0-0.2,0-0.4c0-6.4-20-11.7-44.8-11.7S5.2,6.3,5.2,12.8
	c0,0.1,0,0.2,0,0.4C5.1,13.7,5,14.3,5,14.8v12.1c-0.1,0-0.3-0.1-0.4-0.1C2.1,26.8,0,32.9,0,40.5s2.1,13.6,4.6,13.6
	c0.1,0,0.3,0,0.4-0.1v27.3c0,4.3,3.5,7.7,7.7,7.7h1.3c0,0.1,0,0.1,0,0.2v4.6c0,2.8,2.3,5.1,5.1,5.1H24c2.8,0,5-2.3,5-5.1v-4.6
	c0-0.1,0-0.1,0-0.2h42c0,0.1,0,0.1,0,0.2v4.6c0,2.8,2.2,5,5,5.1h4.8c2.8,0,5.1-2.3,5.1-5.1v-4.6c0-0.1,0-0.1,0-0.2h1.3
	c4.3,0,7.8-3.4,7.8-7.7c0,0,0,0,0,0V54c0.1,0,0.3,0.1,0.4,0.1c2.5,0,4.6-6.1,4.6-13.6S97.9,26.8,95.4,26.8z M32.9,7.1h34.2
	c1.6,0,2.8,1.3,2.8,2.8s-1.3,2.8-2.8,2.8H32.9c-1.6,0-2.8-1.3-2.8-2.8S31.3,7.1,32.9,7.1z M21.5,81.2c-3,0-5.5-2.5-5.5-5.5
	s2.5-5.5,5.5-5.5s5.5,2.5,5.5,5.5l0,0C27,78.8,24.5,81.2,21.5,81.2z M78.5,81.2c-3,0-5.5-2.5-5.5-5.5c0-3,2.5-5.5,5.5-5.5
	c3,0,5.5,2.5,5.5,5.5l0,0C84,78.8,81.5,81.2,78.5,81.2C78.5,81.2,78.5,81.2,78.5,81.2L78.5,81.2z M86.8,57.6c0,3.2-2.6,5.8-5.8,5.8
	H19.1c-3.2,0-5.8-2.6-5.8-5.8V23.4c0-3.2,2.6-5.8,5.8-5.8h61.9c3.2,0,5.8,2.6,5.8,5.8L86.8,57.6L86.8,57.6z"/>
<text transform="matrix(1 0 0 1 0 115)" class="st0 st1 st2">Created by i cons</text>
<text transform="matrix(1 0 0 1 0 120)" class="st0 st1 st2">from the Noun Project</text>
</svg>
